<?xml version="1.0" encoding="UTF-8" standalone="no"?>
<!DOCTYPE svg PUBLIC "-//W3C//DTD SVG 1.1//EN" "http://www.w3.org/Graphics/SVG/1.1/DTD/svg11.dtd">
<svg width="100%" height="100%" viewBox="0 0 304 141" version="1.1" xmlns="http://www.w3.org/2000/svg" xmlns:xlink="http://www.w3.org/1999/xlink" xml:space="preserve" xmlns:serif="http://www.serif.com/" style="fill-rule:evenodd;clip-rule:evenodd;stroke-linejoin:round;stroke-miterlimit:2;">
    <g transform="matrix(1,0,0,1,-104.391237,-190.698622)">
        <g transform="matrix(1,0,0,1,562,0)">
            <g transform="matrix(0.607861,0,0,1.672717,-629.386755,-647.036255)">
                <path d="M408.748,545.853C404.623,544.866 399.776,544.246 394.556,544.119L390.576,544.119C375.241,544.488 363.112,549.118 363.07,554.781L363.07,554.81L363.07,578.862L363.069,578.892C363.069,582.301 355.454,585.068 346.075,585.068C336.695,585.068 329.08,582.301 329.08,578.892L329.08,578.862L329.08,554.81L329.08,554.781C329.08,549.195 317.317,544.607 302.3,544.11L299.584,544.11L299.585,544.066C290.207,544.065 282.594,541.298 282.594,537.89C282.594,534.481 290.209,531.714 299.589,531.714L299.594,531.714L299.594,531.655L329.08,531.658L329.08,520.512C329.08,518.566 326.953,516.7 323.166,515.324C319.379,513.948 314.243,513.175 308.888,513.175C299.508,513.175 291.893,510.407 291.893,506.999C291.893,503.59 299.508,500.823 308.888,500.823L755.128,500.823C764.508,500.823 772.123,503.59 772.123,506.999C772.123,510.407 764.508,513.175 755.128,513.175C749.773,513.175 744.637,513.948 740.85,515.324C737.063,516.7 734.936,518.566 734.936,520.512L734.936,520.542L734.936,531.687L764.422,531.685L764.422,531.743L764.427,531.743C773.807,531.743 781.422,534.511 781.422,537.919C781.422,541.327 773.809,544.094 764.432,544.095L764.432,544.139L761.716,544.14C746.7,544.636 734.936,549.224 734.936,554.81L734.936,578.862L734.936,578.892C734.936,582.301 727.321,585.068 717.941,585.068C708.562,585.068 700.947,582.301 700.947,578.892L700.947,578.862L700.947,554.81C700.947,549.255 689.314,544.687 674.417,544.148L668.482,544.149C663.76,544.321 659.366,544.898 655.567,545.782C650.589,539.682 640.54,534.458 626.573,530.842L626.573,520.542C626.573,518.596 624.446,516.729 620.659,515.353C616.873,513.977 611.736,513.204 606.381,513.204C601.026,513.204 595.89,513.977 592.103,515.353C588.317,516.729 586.19,518.596 586.19,520.542L586.19,525.629C583.672,525.554 581.104,525.516 578.489,525.516C569.284,525.516 560.44,526.077 552.2,527.109L552.2,520.542C552.2,518.596 550.073,516.729 546.286,515.353C542.499,513.977 537.363,513.204 532.008,513.204C526.653,513.204 521.517,513.977 517.73,515.353C513.963,516.722 511.838,518.577 511.816,520.512L511.816,520.542L511.816,527.109C503.577,526.077 494.732,525.516 485.527,525.516L485.522,525.516C482.927,525.516 480.36,525.561 477.827,525.648L477.827,520.542L477.827,520.512C477.827,518.566 475.699,516.7 471.913,515.324C468.126,513.948 462.99,513.175 457.635,513.175C452.28,513.175 447.143,513.948 443.357,515.324C439.57,516.7 437.443,518.566 437.443,520.512L437.443,531.294C424.104,534.902 413.939,539.973 408.748,545.853ZM700.947,531.691L700.947,520.542L700.947,520.512C700.925,518.577 698.8,516.722 695.033,515.353C691.246,513.977 686.11,513.204 680.755,513.204C675.4,513.204 670.263,513.977 666.477,515.353C662.69,516.729 660.563,518.596 660.563,520.542L660.563,531.695L700.947,531.691ZM363.07,520.512L363.07,531.661L403.453,531.665L403.453,520.512C403.453,518.566 401.326,516.7 397.539,515.324C393.753,513.948 388.617,513.175 383.261,513.175C377.906,513.175 372.77,513.948 368.983,515.324C365.197,516.7 363.07,518.566 363.07,520.512Z"/>
            </g>
        </g>
        <g transform="matrix(1,0,0,1,562,0)">
            <g transform="matrix(0.759826,0,0,1,-681.978062,-254.248603)">
                <path d="M481.226,535.253C481.226,525.354 470.664,517.329 457.637,517.329L457.633,517.329C444.605,517.329 434.044,525.354 434.044,535.253L434.044,575.535C434.044,581.236 427.952,585.865 420.448,585.865C412.944,585.865 406.852,581.236 406.852,575.535L406.852,535.253C406.852,513.943 429.588,496.668 457.633,496.668L457.637,496.668C472.321,496.668 485.55,501.404 494.821,508.976C504.093,501.404 517.322,496.668 532.006,496.668L532.01,496.668C560.055,496.668 582.791,513.943 582.791,535.253L582.791,575.535C582.791,581.236 576.698,585.865 569.195,585.865C561.691,585.865 555.599,581.236 555.599,575.535L555.599,535.253C555.599,525.354 545.038,517.329 532.01,517.329L532.006,517.329C518.978,517.329 508.417,525.354 508.417,535.253L508.417,575.535C508.417,581.236 502.325,585.865 494.821,585.865C487.318,585.865 481.226,581.236 481.226,575.535L481.226,535.253Z"/>
            </g>
        </g>
    </g>
</svg>
